<?xml version="1.0" encoding="UTF-8"?>
<!DOCTYPE svg PUBLIC "-//W3C//DTD SVG 1.1//EN" "http://www.w3.org/Graphics/SVG/1.1/DTD/svg11.dtd">
<!-- Creator: CorelDRAW -->
<svg xmlns="http://www.w3.org/2000/svg" xml:space="preserve" width="2048px" height="2048px" style="shape-rendering:geometricPrecision; text-rendering:geometricPrecision; image-rendering:optimizeQuality; fill-rule:evenodd; clip-rule:evenodd"
viewBox="0 0 2048 2048"
 xmlns:xlink="http://www.w3.org/1999/xlink">
 <defs>
  <style type="text/css">
   <![CDATA[
    .fil4 {fill:none}
    .fil3 {fill:#9DD5C0}
    .fil1 {fill:#F45A52}
    .fil2 {fill:#FECA5F}
    .fil0 {fill:#333333;fill-rule:nonzero}
   ]]>
  </style>
 </defs>
 <g id="Layer_x0020_1">
  <metadata id="CorelCorpID_0Corel-Layer"/>
  <g id="_488788512">
   <g>
    <path id="_488788200" class="fil0" d="M331.819 946.546l0 591.163 172.145 0c13.2543,0 24,10.7457 24,24 0,4.31693 -1.13976,8.36694 -3.13465,11.8665l-59.1603 128.886 245.835 -160.814 13.1256 20.0622 -13.1386 -20.0847c4.15985,-2.72126 8.85119,-3.98386 13.4728,-3.91536l539.583 0 0 -591.163 -932.728 0zm-48 615.163l0 -639.163c0,-13.2543 10.7457,-24 24,-24l980.728 0c13.2543,0 24,10.7457 24,24l0 639.163c0,13.2543 -10.7457,24 -24,24l-556.812 0 -308.366 201.721c-6.78544,4.91221 -15.9508,6.1252 -24.1063,2.38229 -12.0461,-5.52874 -17.328,-19.7776 -11.7992,-31.8236l0.0791339 0.0366142 79.0938 -172.316 -158.817 0c-13.2543,0 -24,-10.7457 -24,-24z"/>
    <path id="_488788368" class="fil0" d="M820.999 1128.79c-2.18032,6.5941 -7.18938,12.1949 -14.1768,14.8819 -2.34095,0.900001 -4.73504,1.40788 -7.1126,1.55788l-0.00708662 0c-0.583465,0.0366142 -1.16457,0.0531496 -1.74567,0.046063 -0.318898,-0.00354331 -0.636615,-0.0141732 -0.95315,-0.0307087l-0.193701 -0.00944883 -0.269292 -0.0188977 -0.304725 -0.0212599c-0.550394,-0.0448819 -1.09606,-0.111024 -1.63937,-0.193701l-0.0791339 -0.011811c-8.02442,-1.25079 -15.2162,-6.54567 -18.5256,-14.6055l0.011811 -0.00472441 -0.197244 -0.493701 0.0543308 -0.0212599c-9.5504,-22.9795 -25.3229,-41.0622 -43.7221,-51.8138 -17.1142,-10.0016 -36.4122,-13.4728 -54.5682,-8.19213 -7.05001,2.0504 -13.9937,5.21457 -20.3953,9.32481 -5.97402,3.83622 -11.3516,8.47914 -15.7394,13.7717 -40.8626,49.2863 5.10473,103.037 62.113,169.697 31.95,37.3595 66.8906,78.2221 94.3005,125.406 27.5421,-47.152 62.5536,-87.867 94.5686,-125.093 57.2386,-66.5564 103.39,-120.225 62.6682,-169.619 -4.29095,-5.20512 -9.65434,-9.83859 -15.6898,-13.7374 -6.37441,-4.11733 -13.3382,-7.30749 -20.4532,-9.39804 -18.1831,-5.34331 -37.4894,-1.9441 -54.5965,7.99016 -18.098,10.5095 -33.6922,28.1421 -43.3477,50.589zm-22.7162 -54.9059c11.9835,-15.391 26.3481,-27.9957 42.0638,-37.1209 28.154,-16.3477 60.6638,-21.7276 92.0965,-12.4902 11.5358,3.38977 22.7126,8.48859 32.8288,15.0225 10.0051,6.463 19.1351,14.4354 26.752,23.6752 66.3343,80.4615 8.49804,147.715 -63.2304,231.119 -39.2185,45.6012 -83.1898,96.73 -109.09,156.267l0.0637796 0.0271654c-5.28662,12.1547 -19.4268,17.7225 -31.5815,12.4358 -6.10512,-2.65512 -10.5461,-7.54489 -12.7878,-13.2933 -25.8166,-59.3835 -69.3627,-110.309 -108.224,-155.75 -71.543,-83.6552 -129.229,-151.11 -62.6752,-231.384 7.55906,-9.11812 16.7102,-17.0421 26.8016,-23.5229 10.1197,-6.49725 21.3402,-11.5701 32.9575,-14.9492 31.4988,-9.16182 63.9945,-3.71339 92.0682,12.6921 15.6874,9.16772 30.0177,21.8244 41.9575,37.2709z"/>
   </g>
   <g>
    <path id="_488788320" class="fil0" d="M1764.18 279.999l0 536.898c0,13.2543 -10.7457,24 -24,24l-127.434 0 63.9437 139.309 0.0791339 -0.0366142c5.52874,12.0461 0.246851,26.2949 -11.7992,31.8236 -8.15552,3.74292 -17.3209,2.52992 -24.1063,-2.38229l-257.909 -168.714 -466.585 0c-13.2543,0 -24,-10.7457 -24,-24l0 -536.898c0,-13.2543 10.7457,-24 24,-24l823.811 0c13.2543,0 24,10.7457 24,24zm-48 512.898l0 -488.898 -775.811 0 0 488.898 449.357 0c4.62166,-0.068504 9.313,1.1941 13.4728,3.91536l-13.1386 20.0847 13.1256 -20.0622 195.378 127.807 -44.0103 -95.8784c-1.99488,-3.49961 -3.13465,-7.54961 -3.13465,-11.8665 0,-13.2543 10.7457,-24 24,-24l140.762 0z"/>
    <path id="_488788008" class="fil0" d="M1332.45 470.56l-0.165354 0.0283465 -0.362599 0.0602363 -0.284646 0.0413386 -0.301181 0.0425197 -0.248032 0.0295276 -0.334252 0.0389764 -0.28937 0.0271654 -0.252756 0.0236221 -0.303544 0.022441 -0.329528 0.0212599 -0.205512 0.00944883 -0.334252 0.0141732 -0.487796 0.0106299 -0.0472441 0.0011811 -0.421654 0 -0.223229 -0.00236221 -0.380315 -0.00944883 -0.162992 -0.00472441c-2.77441,-0.10748 -5.57835,-0.701575 -8.29016,-1.83307 -6.68268,-2.78386 -11.4402,-8.23938 -13.5532,-14.6114 -7.78347,-17.9433 -20.2512,-32.0209 -34.6937,-40.4067 -13.4858,-7.83071 -28.6465,-10.5284 -42.8611,-6.35197 -5.62323,1.65236 -11.1354,4.17992 -16.1917,7.44568 -4.7504,3.06851 -8.95512,6.69331 -12.2929,10.7433 -32.1591,39.0071 5.6752,83.002 52.5957,137.56 25.7398,29.9292 53.7756,62.5312 76.5154,100.054 22.6382,-37.5496 50.6221,-70.2733 76.3146,-100.315 46.7244,-54.6343 84.4005,-98.6906 52.1304,-137.613 -3.43229,-4.13977 -7.64764,-7.77638 -12.3366,-10.787 -5.07993,-3.26221 -10.5709,-5.76733 -16.1268,-7.38426 -14.1839,-4.12559 -29.3374,-1.36654 -42.8374,6.52205 -14.8701,8.69056 -27.6166,23.3776 -35.2914,42.0733l0.0720473 0.0295276c-3.23859,7.89095 -10.2,13.128 -18.0189,14.5205zm-37.6713 -97.9347c12.3165,7.15158 23.6693,16.7634 33.4004,28.3902 9.69922,-11.6764 21.0284,-21.3307 33.3225,-28.5166 24.4606,-14.2925 52.8107,-19.0299 80.3375,-11.0221 10.1244,2.94567 19.891,7.35945 28.689,13.0087 8.80394,5.65276 16.7929,12.5717 23.3988,20.5382 57.9626,69.9083 8.56654,127.669 -52.6926,199.299 -32.4319,37.9229 -68.7709,80.4178 -90.241,129.735 -2.24173,5.74843 -6.68268,10.637 -12.7878,13.2921 -12.1547,5.28662 -26.2949,-0.281103 -31.5815,-12.4358l0.0637796 -0.0271654c-21.5268,-49.4788 -58.265,-92.2005 -91.0347,-130.303 -61.4115,-71.4071 -110.928,-128.987 -53.1579,-199.06 6.66378,-8.08583 14.6362,-15.0496 23.3551,-20.6811 8.79804,-5.68229 18.5221,-10.1173 28.5673,-13.0701 27.4618,-8.0693 55.8284,-3.39449 80.3611,10.852z"/>
   </g>
  </g>
  <path class="fil1" d="M799.703 1145.23l0 0zm-23.7106 -14.8453l0 0zm88.3548 -52.1835c-18.098,10.5095 -33.6922,28.1421 -43.3477,50.589 -2.18032,6.5941 -7.18938,12.1949 -14.1768,14.8819 -2.34095,0.900001 -4.73504,1.40788 -7.11969,1.55788 -0.583465,0.0366142 -1.16457,0.0531496 -1.74567,0.046063l-0.95315 -0.0307087 -0.193701 -0.00944883 -0.269292 -0.0188977 -0.304725 -0.0212599c-0.550394,-0.0448819 -1.09606,-0.111024 -1.63937,-0.193701l-0.0791339 -0.011811c-8.02442,-1.25079 -15.2162,-6.54567 -18.5138,-14.6102l-0.197244 -0.493701 0.0543308 -0.0212599c-9.5504,-22.9795 -25.3229,-41.0622 -43.7221,-51.8138 -17.1142,-10.0016 -36.4122,-13.4728 -54.5682,-8.19213 -7.05001,2.0504 -13.9937,5.21457 -20.3953,9.32481 -5.97402,3.83622 -11.3516,8.47914 -15.7394,13.7717 -40.8626,49.2863 5.10473,103.037 62.113,169.697 31.95,37.3595 66.8906,78.2221 94.3005,125.406 27.5421,-47.152 62.5536,-87.867 94.5686,-125.093 57.2386,-66.5564 103.39,-120.225 62.6682,-169.619 -4.29095,-5.20512 -9.65434,-9.83859 -15.6898,-13.7374 -6.37441,-4.11733 -13.3382,-7.30749 -20.4532,-9.39804 -18.1831,-5.34331 -37.4894,-1.9441 -54.5965,7.99016z"/>
  <path class="fil2" d="M992.024 1062.97c66.3343,80.4615 8.49804,147.715 -63.2304,231.119 -39.2185,45.6012 -83.1898,96.73 -109.09,156.267l0.0637796 0.0271654c-5.28662,12.1547 -19.4268,17.7225 -31.5815,12.4358 -6.10512,-2.65512 -10.5461,-7.54489 -12.7878,-13.2933 -25.8166,-59.3835 -69.3627,-110.309 -108.224,-155.75 -71.543,-83.6552 -129.229,-151.11 -62.6752,-231.384 7.55906,-9.11812 16.7102,-17.0421 26.8016,-23.5229 10.1197,-6.49725 21.3402,-11.5701 32.9575,-14.9492 31.4988,-9.16182 63.9945,-3.71339 92.0682,12.6921 15.6874,9.16772 30.0177,21.8244 41.9575,37.2709 11.9835,-15.391 26.3481,-27.9957 42.0638,-37.1209 28.154,-16.3477 60.6638,-21.7276 92.0965,-12.4902 11.5358,3.38977 22.7126,8.48859 32.8288,15.0225 10.0051,6.463 19.1351,14.4354 26.752,23.6752zm-660.205 -116.423l0 591.163 172.145 0c13.2543,0 24,10.7457 24,24 0,4.31693 -1.13976,8.36694 -3.13465,11.8665l-59.1603 128.886 245.835 -160.814 -0.0129921 -0.022441c4.15985,-2.72126 8.85119,-3.98386 13.4728,-3.91536l539.583 0 0 -591.163 -932.728 0z"/>
  <path class="fil3" d="M1403.18 796.835l195.378 127.807 -44.0103 -95.8784c-1.99488,-3.49961 -3.13465,-7.54961 -3.13465,-11.8665 0,-13.2543 10.7457,-24 24,-24l140.762 0 0 -488.898 -775.811 0 0 488.898 449.357 0c4.62166,-0.068504 9.313,1.1941 13.4728,3.91536l-0.0129921 0.022441zm38.0469 -202.512c-32.4319,37.9229 -68.7709,80.4178 -90.241,129.735 -2.24173,5.74843 -6.68268,10.637 -12.7878,13.2921 -12.1547,5.28662 -26.2949,-0.281103 -31.5815,-12.4358l0.0637796 -0.0271654c-21.5268,-49.4788 -58.265,-92.2005 -91.0347,-130.303 -61.4115,-71.4071 -110.928,-128.987 -53.1579,-199.06 6.66378,-8.08583 14.6362,-15.0496 23.3551,-20.6811 8.79804,-5.68229 18.5221,-10.1173 28.5673,-13.0701 27.4618,-8.0693 55.8284,-3.39449 80.3611,10.852 12.3165,7.15158 23.6693,16.7634 33.4004,28.3902 9.69922,-11.6764 21.0284,-21.3307 33.3225,-28.5166 24.4606,-14.2925 52.8107,-19.0299 80.3375,-11.0221 10.1244,2.94567 19.891,7.35945 28.689,13.0087 8.80394,5.65276 16.7929,12.5717 23.3988,20.5382 57.9626,69.9083 8.56654,127.669 -52.6926,199.299z"/>
  <path class="fil1" d="M1328.54 663.513c22.6382,-37.5496 50.6221,-70.2733 76.3146,-100.315 46.7244,-54.6343 84.4005,-98.6906 52.1304,-137.613 -3.43229,-4.13977 -7.64764,-7.77638 -12.3366,-10.787 -5.07993,-3.26221 -10.5709,-5.76733 -16.1268,-7.38426 -14.1839,-4.12559 -29.3374,-1.36654 -42.8374,6.52205 -14.8701,8.69056 -27.6166,23.3776 -35.2914,42.0733l0.0720473 0.0295276c-3.23859,7.89095 -10.2,13.128 -18.0189,14.5205l-0.165354 0.0283465 -0.362599 0.0602363 -0.284646 0.0413386 -0.301181 0.0425197 -0.248032 0.0295276 -0.334252 0.0389764 -0.28937 0.0271654 -0.252756 0.0236221 -0.303544 0.022441 -0.329528 0.0212599 -0.205512 0.00944883 -0.334252 0.0141732 -0.487796 0.0106299 -0.0472441 0.0011811 -0.421654 0 -0.223229 -0.00236221 -0.380315 -0.00944883 -0.162992 -0.00472441c-2.77441,-0.10748 -5.57835,-0.701575 -8.29016,-1.83307 -6.68268,-2.78386 -11.4402,-8.23938 -13.5532,-14.6114 -7.78347,-17.9433 -20.2512,-32.0209 -34.6937,-40.4067 -13.4858,-7.83071 -28.6465,-10.5284 -42.8611,-6.35197 -5.62323,1.65236 -11.1354,4.17992 -16.1917,7.44568 -4.7504,3.06851 -8.95512,6.69331 -12.2929,10.7433 -32.1591,39.0071 5.6752,83.002 52.5957,137.56 25.7398,29.9292 53.7756,62.5312 76.5154,100.054z"/>
 </g>
 <rect class="fil4" width="2048" height="2048"/>
</svg>
